<svg width="512" height="512" viewBox="0 0 512 512" fill="none" xmlns="http://www.w3.org/2000/svg">
<g clip-path="url(#clip0_65_2)">
<path d="M512 0H0V512H512V0Z" fill="url(#paint0_linear_65_2)"/>
<path fill-rule="evenodd" clip-rule="evenodd" d="M413.6 412.8H324L322.2 397.8L320.2 391.4L316.2 384.2L308.4 376.4L303.2 373.6L295.2 371.6L288 372L285.4 373.4L291.8 379.4L295.4 384.6L297.4 389L300.6 401.4L300.4 412.8H188.8L184.8 400.8L174 398.8L165.2 395.6L156.8 391.2L149.2 385.6L141.4 377.8L135 368.6L130.6 359L127.8 348.6L127 343V331L128.2 323.8L132.6 310.6L138.6 300.6L133 296.2L157.4 287L152.6 312.2L152 312.4L146.4 307.2L141.8 314.6L139 322.2L137 332.2V341.8L139 352.2L141.8 359.8L147 368.6L156.8 378.8L163.2 383.2L169.6 386.4L179.2 389.6L183.2 390L182.6 369L183.4 361L187 343.4L191 331.4L197 317.8L207.4 300.6L217.4 288.2L225.4 280.2L216.4 274.8L209 267.8L205.4 262.6L201.6 254.4H182.4L170 252L156.4 246L148 239.6L144.2 235.4L139.4 228.2L135.8 219.8L133.4 206.2L124.6 197.4L118.6 187.4L115.4 177.4L114.2 169.4L105 160.2L99.4 151L95 136.2L93.8 126.2V118.2L94.4 118L98 121.2L106 126L119.2 130.4L191.6 131.2L205.6 134.8L214.8 139.6L222.8 146L229 153.8L231.8 159L234.6 166.6L236.2 173.8L236.6 180.2L245 187.8L249.4 193.8L255 205.8L257 217.4L263.6 224.4L269.8 210.2L275.4 202.6L275.8 189L279.4 176.6L290.6 156.6L296.6 142.6L297.4 139L296.6 133.4L290 126H374.8L382.8 127.6L390 130.4L400 137.2L407.8 146.6L412.6 157L414.6 166.6V175.4L413.8 180.2L411.8 187L408.6 193.8L400 205.2L393.8 193L389.2 188L385.6 186L380.8 184.8L374.4 185.2L369.2 187.2L366.2 189.8L372.2 196.6L378.2 207.4L381.4 220.2V232.2L379.8 239.8L377.4 246.2L374.2 252.2L369 259V272.6L366.2 283.4L362.2 291.4L356.2 299.4V321.8L357.8 331L360.6 339.4L365 347.8L370.2 354.6L378.4 362L400.8 375.2L405.8 380.2L409.4 385.4L412.2 392.2L413.4 397.8L413.6 412.8ZM401.4 185.8L403 181.8L404.6 173.4V168.2L403.4 161L400.6 154.2L396.2 147.8L390.8 142.8L386.4 140L377.6 136.8L369.2 136L313.8 136.2V137L358.8 182.4L364 178.4L370.8 175.6L374.4 174.8H382.8L388.8 176.4L392.8 178.4L395.2 180L400.8 186L401.4 185.8ZM225.8 173.8L222.6 163L217.4 155L209.2 148L197.6 142.8L189.2 141.2H124L114 139.6L105.8 137L107.4 144.2L113.4 154.6L118.4 159.6L122.8 162.8L130.4 166.8L136.4 168.8L148.4 170.8H210.4L225.8 173.8ZM361.2 152.8H343.6L341 151L340.2 149.4V146.6L342.4 143.6L344.4 142.8H360.4L362.4 143.6L364.6 146.2V149.4L363.8 151L361.2 152.8ZM365.8 246.6L369.4 239.4L371.4 231L371 218.6L369.8 213.8L366.2 205.4L363.4 201.4L353.4 191L306.8 144L302.2 156.2L297.4 164.6L298.6 169.8L301.8 176.2L305.4 181L355.4 231.8L361 238.6L365 246.2L365.8 246.6ZM245.8 211.4L243.8 204.6L238.2 195.4L232.4 189.6L228.4 186.8L218.4 182.4L208.8 180.8H145.2L134.4 178.8L125.8 175.8L128.2 184.2L131.4 189.8L135 194.2L143.2 200.8L150.4 204.4L156.4 206.4L168.8 208.4H233.2L245.8 211.4ZM353.4 286.2L356.6 280.2L359 271L358.6 258.6L354.2 246.6L347.8 238.2L297.4 187L290.8 176.8L287 185L285.4 193.4L286.2 205L290.6 216.2L295.8 223.4L343.8 272.2L349.4 279.8L352.2 285.8L353.4 286.2ZM263.8 245.4L261.4 239L256.2 231L248.8 224.4L242.8 221.2L238 219.6L230 218.4H165.6L151.6 215.6L145 213V215L147 221L152.2 229.4L156.8 234L162 237.6L173.6 242.4L185.6 244.4H256L263.8 245.4ZM336.6 331.8L341.8 325.4L343.8 321.4L346.2 313L346.6 301.8L343.8 290.6L340.2 283.8L335.8 278.2L287.8 229.4L282.6 222.6L278.8 215.2L274.6 223.8L273 231.4V240.2L276.2 251.8L282.2 261L321.4 301.4L329.8 314.6L333.8 323.8L335.8 331.8H336.6ZM366.2 402.2L365 395.4L360.6 387.8L339.4 368.2L335 363L331 356.6L327.8 347.8L326.6 336.2L325 329.4L321.8 321L315.8 310.6L307.4 300.6L273.4 266.2L267.6 257.2L254.4 254.4L213 254.6L216.2 260.6L222.4 266.8L229.6 271.2L246 276.4L256 281.2L266.8 289.2L277 300.6L280.6 305.8L285.4 315L289.8 328.2L291.8 341.4V349.4L290 361.6H298L303.6 362.8L311.6 366.4L316.8 370L323.8 377.4L327.8 383.8L331.8 394.2L333.6 402.4L366.2 402.2ZM289.8 402.6V398.6L287.8 392.2L284.2 386.2L280 382L276.4 379.6L270.4 377.2L260.8 376.4L257.8 374.2L257 372.2L257.8 368.6L260.8 366.4H268.4L275.6 368.4L279 361.8L281.4 351.8V338.6L279.4 328.2L275.4 317.4L268.2 305.4L258.4 295.2L253.6 291.6L245.6 287.2L236 284.4L226.6 293L215.8 306.2L208.2 318.2L199.8 336.6L195.4 351.8L192.6 371L193 387.4L195.8 402.2L289.8 402.6ZM403.4 402.2L402.2 394.2L398.2 387L390.8 380.8L373.6 371.2L368 366.8L360.2 358.6L355 351L351.8 344.6L348.6 334.2L348 334L346.2 336.6L337.8 344.6L339.8 351.4L345 359L352.4 366.4L362.8 375.2L369.4 382.6L374.2 391.4L376.6 402.2H403.4Z" fill="#F4ECDF"/>
</g>
<defs>
<linearGradient id="paint0_linear_65_2" x1="0" y1="0" x2="0" y2="512" gradientUnits="userSpaceOnUse">
<stop stop-color="#0A1D36"/>
<stop offset="1" stop-color="#1C4373"/>
</linearGradient>
<clipPath id="clip0_65_2">
<rect width="512" height="512" fill="white"/>
</clipPath>
</defs>
</svg>
